<svg height="512.001pt" viewBox="0 0 512.001 512.001" width="512.001pt" xmlns="http://www.w3.org/2000/svg" fill="#ffffff"><path d="m54.886719 432.28125c-4.144531 0-7.5 3.359375-7.5 7.5 0 4.144531 3.355469 7.503906 7.5 7.503906h47.792969c4.140624 0 7.5-3.359375 7.5-7.503906 0-4.140625-3.359376-7.5-7.5-7.5zm0 0"/><path d="m275.613281 447.285156h180.378907c4.144531 0 7.5-3.359375 7.5-7.503906 0-4.140625-3.355469-7.5-7.5-7.5h-180.378907c-4.144531 0-7.503906 3.359375-7.503906 7.5 0 4.144531 3.359375 7.503906 7.503906 7.503906zm0 0"/><path d="m223.1875 287.425781c-2.53125-3.285156-7.246094-3.886719-10.523438-1.359375l-61.90625 47.730469c-.460937.359375-.863281.761719-1.21875 1.195313-.046874.054687-.09375.117187-.136718.171874-.164063.210938-.3125.429688-.453125.65625-.027344.046876-.058594.089844-.085938.136719-.160156.273438-.300781.554688-.421875.839844-.023437.058594-.042968.113281-.066406.171875-.097656.246094-.179688.496094-.25.75-.015625.046875-.035156.089844-.046875.136719l-12.910156 49.832031v.003906l-1.90625 7.347656-9.644531 37.238282c-.914063 3.527344-.164063 7.203125 2.0625 10.089844 2.222656 2.886718 5.589843 4.546874 9.230468 4.5625l97.539063.355468h.027343c.386719 0 .769532-.035156 1.148438-.09375.117188-.019531.234375-.050781.351562-.074218.257813-.054688.511719-.113282.761719-.191407.132813-.042969.265625-.097656.398438-.148437.226562-.085938.449219-.179688.667969-.289063.128906-.0625.257812-.128906.382812-.203125.21875-.125.429688-.265625.636719-.414062.074219-.050782.15625-.089844.230469-.148438l157.925781-121.765625c2.816406 2.132813 6.21875 3.25 9.660156 3.25 3.40625 0 6.839844-1.082031 9.742187-3.320312l24.75-19.078125c6.980469-5.386719 8.28125-15.445313 2.898438-22.425782l-3.71875-4.824218 9.699219-7.476563c17.355469-13.382812 20.589843-38.386719 7.210937-55.738281l-25.207031-32.691406c-13.378906-17.355469-38.382813-20.585938-55.738281-7.207032l-9.699219 7.480469-3.71875-4.820312c-2.605469-3.382813-6.375-5.546875-10.609375-6.09375-4.242188-.546875-8.433594.585937-11.816406 3.191406l-24.746094 19.082031c-5.828125 4.496094-7.679688 12.246094-5.003906 18.75l-59.269532 45.695313c-3.28125 2.53125-3.890624 7.238281-1.359374 10.519531 2.527343 3.285156 7.242187 3.894531 10.519531 1.363281l58.8125-45.34375 7.292969 9.460938-151.523438 116.832031-7.296875-9.460938 55.964844-43.152343c3.28125-2.53125 3.890625-7.242188 1.363281-10.523438zm-83.984375 144.515625 6.644531-25.652344 19.851563 25.746094zm224.464844-147.648437.199219.257812 5.039062 6.539063-151.527344 116.828125-5.234375-6.792969zm-160.6875 104.953125-6.265625-8.128906 151.527344-116.832032 6.265624 8.128906zm30.855469 40.015625-7.292969-9.460938 151.523437-116.832031 7.296875 9.460938zm149.601562-242.933594c10.804688-8.328125 26.371094-6.316406 34.699219 4.484375l25.203125 32.691406c8.328125 10.800782 6.316406 26.367188-4.484375 34.695313l-9.699219 7.480469-55.414062-71.875zm-60.765625 20.222656c-.332031-.429687-.253906-1.050781.175781-1.382812l24.75-19.082031c.214844-.164063.457032-.230469.726563-.195313s.492187.160156.65625.375l81.171875 105.273437c.332031.433594.25 1.054688-.179688 1.386719l-24.75 19.082031c-.429687.328126-1.050781.25-1.382812-.179687l-2.015625-2.613281-.257813-.332032-16.191406-21c0-.003906-.003906-.007812-.007812-.015624l-14.398438-18.671876zm11.167969 39.058594 1.695312 2.195313 3.546875 4.601562-151.527343 116.828125-5.238282-6.792969zm-138.160156 158.734375 14.398437 18.675781h.003906l7.09375 9.207031-32.480469-.121093-34.085937-44.207031 8.148437-31.441407zm0 0"/><path d="m54.769531 28.792969c-12.140625 0-22.015625 9.875-22.015625 22.015625 0 12.136718 9.875 22.011718 22.015625 22.011718 12.136719 0 22.011719-9.875 22.011719-22.011718 0-12.140625-9.875-22.015625-22.011719-22.015625zm0 29.023437c-3.867187 0-7.011719-3.144531-7.011719-7.007812 0-3.867188 3.144532-7.011719 7.011719-7.011719 3.863281 0 7.011719 3.144531 7.011719 7.011719 0 3.863281-3.148438 7.007812-7.011719 7.007812zm0 0"/><path d="m110.816406 28.792969c-12.140625 0-22.015625 9.875-22.015625 22.015625 0 12.136718 9.875 22.011718 22.015625 22.011718 12.136719 0 22.011719-9.875 22.011719-22.011718 0-12.140625-9.875-22.015625-22.011719-22.015625zm0 29.023437c-3.867187 0-7.011718-3.144531-7.011718-7.007812 0-3.867188 3.144531-7.011719 7.011718-7.011719 3.863282 0 7.011719 3.144531 7.011719 7.011719 0 3.863281-3.148437 7.007812-7.011719 7.007812zm0 0"/><path d="m166.863281 28.792969c-12.140625 0-22.015625 9.875-22.015625 22.015625 0 12.136718 9.875 22.011718 22.015625 22.011718 12.136719 0 22.011719-9.875 22.011719-22.011718 0-12.140625-9.875-22.015625-22.011719-22.015625zm0 29.023437c-3.867187 0-7.011719-3.144531-7.011719-7.007812 0-3.867188 3.144532-7.011719 7.011719-7.011719 3.863281 0 7.011719 3.144531 7.011719 7.011719 0 3.863281-3.148438 7.007812-7.011719 7.007812zm0 0"/><path d="m504.5 144.539062c4.140625 0 7.5-3.359374 7.5-7.503906v-104.023437c0-18.203125-14.808594-33.011719-33.011719-33.011719h-445.972656c-18.203125 0-33.015625 14.808594-33.015625 33.011719v445.976562c0 18.203125 14.8125 33.011719 33.015625 33.011719h445.972656c18.203125 0 33.011719-14.808594 33.011719-33.011719v-295c0-4.144531-3.355469-7.5-7.5-7.5s-7.5 3.355469-7.5 7.5v294.996094c0 9.933594-8.082031 18.011719-18.011719 18.011719h-445.972656c-9.933594 0-18.011719-8.078125-18.011719-18.011719v-376.945313h481.992188v34.996094c0 4.144532 3.359375 7.503906 7.503906 7.503906zm-489.496094-57.503906v-54.023437c0-9.929688 8.078125-18.007813 18.011719-18.007813h445.972656c9.929688 0 18.011719 8.078125 18.011719 18.007813v54.023437zm0 0"/></svg>