<svg width="32" height="32" xmlns="http://www.w3.org/2000/svg">

 <g>
  <title>background</title>
  <rect fill="none" id="canvas_background" height="402" width="582" y="-1" x="-1"/>
 </g>
 <g>
  <title>Layer 1</title>
  <path stroke="null" transform="rotate(-90 16.12120056152344,16.014461517333984) " id="Arrow_Forward" fill-rule="evenodd" fill="#121313" d="m31.945047,16.014647c0,-0.26406 -0.108789,-0.516253 -0.289774,-0.706139l-9.790016,-9.888915c-0.386695,-0.390651 -1.012726,-0.389662 -1.398432,0c-0.386695,0.389662 -0.386695,1.022616 0,1.412278l8.102799,8.183896l-27.283279,0c-0.545923,0 -0.98899,0.447024 -0.98899,0.99888s0.443068,0.99888 0.98899,0.99888l27.28229,0l-8.10181,8.183896c-0.386695,0.389662 -0.385706,1.022616 0,1.412278c0.386695,0.389662 1.012726,0.389662 1.398432,0l9.790016,-9.888915c0.184941,-0.186919 0.286807,-0.444057 0.289774,-0.706139z" clip-rule="evenodd"/>
 </g>
</svg>