<svg height="512pt" viewBox="0 0 512 512" width="512pt" xmlns="http://www.w3.org/2000/svg" fill="#ffffff"><path d="m55.261719 28.761719c-12.125 0-21.988281 9.867187-21.988281 21.992187s9.863281 21.988282 21.988281 21.988282 21.992187-9.863282 21.992187-21.988282-9.867187-21.992187-21.992187-21.992187zm0 28.992187c-3.859375 0-7.003907-3.140625-7.003907-7.003906 0-3.859375 3.144532-7.003906 7.003907-7.003906 3.863281 0 7.003906 3.144531 7.003906 7.003906 0 3.863281-3.140625 7.003906-7.003906 7.003906zm0 0"/><path d="m111.25 28.761719c-12.125 0-21.992188 9.867187-21.992188 21.992187s9.867188 21.988282 21.992188 21.988282 21.988281-9.863282 21.988281-21.988282-9.863281-21.992187-21.988281-21.992187zm0 28.992187c-3.863281 0-7.003906-3.140625-7.003906-7.003906 0-3.859375 3.140625-7.003906 7.003906-7.003906 3.859375 0 7.003906 3.144531 7.003906 7.003906 0 3.863281-3.144531 7.003906-7.003906 7.003906zm0 0"/><path d="m167.234375 28.761719c-12.125 0-21.988281 9.867187-21.988281 21.992187s9.863281 21.988282 21.988281 21.988282 21.988281-9.863282 21.988281-21.988282-9.863281-21.992187-21.988281-21.992187zm0 28.992187c-3.859375 0-7.003906-3.140625-7.003906-7.003906 0-3.859375 3.144531-7.003906 7.003906-7.003906 3.863281 0 7.003906 3.144531 7.003906 7.003906 0 3.863281-3.140625 7.003906-7.003906 7.003906zm0 0"/><path d="m40.910156 136.789062h19.929688c4.140625 0 7.496094-3.355468 7.496094-7.492187 0-4.140625-3.355469-7.496094-7.496094-7.496094h-19.929688c-4.136718 0-7.492187 3.355469-7.492187 7.496094 0 4.136719 3.355469 7.492187 7.492187 7.492187zm0 0"/><path d="m116.34375 129.296875c0-4.140625-3.355469-7.496094-7.496094-7.496094h-22.6875c-4.140625 0-7.496094 3.355469-7.496094 7.496094 0 4.136719 3.355469 7.492187 7.496094 7.492187h22.6875c4.140625 0 7.496094-3.355468 7.496094-7.492187zm0 0"/><path d="m152.738281 154.773438h-58.878906c-4.136719 0-7.492187 3.351562-7.492187 7.492187s3.355468 7.492187 7.492187 7.492187h58.878906c4.136719 0 7.492188-3.351562 7.492188-7.492187s-3.351563-7.492187-7.492188-7.492187zm0 0"/><path d="m69.757812 154.773438h-28.847656c-4.136718 0-7.492187 3.351562-7.492187 7.492187s3.355469 7.492187 7.492187 7.492187h28.847656c4.140626 0 7.496094-3.351562 7.496094-7.492187s-3.359375-7.492187-7.496094-7.492187zm0 0"/><path d="m203.566406 246.851562h-.589844c-11.820312 0-21.4375 9.617188-21.4375 21.441407v43.175781c0 11.820312 9.617188 21.4375 21.4375 21.4375h.589844c11.824219 0 21.441406-9.617188 21.441406-21.4375v-43.175781c0-11.824219-9.617187-21.441407-21.441406-21.441407zm6.453125 64.617188c0 3.558594-2.894531 6.453125-6.453125 6.453125h-.589844c-3.554687 0-6.449218-2.894531-6.449218-6.453125v-43.175781c0-3.558594 2.894531-6.453125 6.449218-6.453125h.589844c3.558594 0 6.453125 2.894531 6.453125 6.453125zm0 0"/><path d="m468.402344 280.519531h.589844c11.820312 0 21.4375-9.617187 21.4375-21.4375v-43.175781c0-11.824219-9.617188-21.441406-21.4375-21.441406h-.589844c-11.820313 0-21.4375 9.617187-21.4375 21.441406v43.175781c0 11.820313 9.617187 21.4375 21.4375 21.4375zm-6.453125-64.613281c0-3.558594 2.894531-6.453125 6.453125-6.453125h.589844c3.558593 0 6.453124 2.894531 6.453124 6.453125v43.175781c0 3.558594-2.894531 6.453125-6.453124 6.453125h-.589844c-3.558594 0-6.453125-2.894531-6.453125-6.453125zm0 0"/><path d="m479.023438 0h-446.042969c-18.1875 0-32.980469 14.792969-32.980469 32.980469v362.566406c0 18.183594 14.792969 32.976563 32.980469 32.976563h41.683593c4.136719 0 7.492188-3.351563 7.492188-7.492188 0-4.136719-3.355469-7.492188-7.492188-7.492188h-41.683593c-9.921875 0-17.992188-8.070312-17.992188-17.992187v-28.421875h236.964844v22.929688c0 12.195312 9.921875 22.117187 22.117187 22.117187h.339844c1.566406 0 3.007813.511719 4.1875 1.367187h-156.476562c-4.136719 0-7.492188 3.355469-7.492188 7.492188 0 4.140625 3.355469 7.496094 7.492188 7.496094h56.664062v26.871094h-22.625c-15.09375 0-27.371094 12.28125-27.371094 27.371093v16.191407c0 6.886718 5.601563 12.488281 12.488282 12.488281h228.875c6.886718 0 12.488281-5.601563 12.488281-12.488281v-16.191407c0-15.089843-12.277344-27.371093-27.371094-27.371093h-24.632812v-26.871094h147.816406c18.183594 0 32.976563-14.796875 32.976563-32.980469v-298.25c.367187-.882813.570312-1.847656.570312-2.863281v-61.457032c0-18.183593-14.792969-32.976562-32.976562-32.976562zm-227.070313 352.136719h-236.964844v-250.207031h161.871094v97.265624c0 15.511719 12.617187 28.128907 28.128906 28.128907 15.507813 0 28.128907-12.617188 28.128907-28.128907v-26.460937c0-5.195313 4.226562-9.417969 9.417968-9.417969s9.417969 4.222656 9.417969 9.417969zm-58.179687 76.386719h87.765624v26.875h-87.765624zm-49.996094 67.9375v-13.691407c0-6.828125 5.554687-12.382812 12.382812-12.382812h125.378906v7.484375c0 7.425781 3.320313 14.085937 8.542969 18.589844zm211.496094-26.074219c6.828124 0 12.382812 5.554687 12.382812 12.382812v13.691407h-45.558594c5.226563-4.503907 8.542969-11.164063 8.542969-18.589844v-7.484375zm-39.621094-51.089844v58.574219c0 5.273437-4.289063 9.5625-9.5625 9.5625-5.273438 0-9.5625-4.289063-9.5625-9.5625v-58.574219c0-12.195313-9.921875-22.117187-22.113282-22.117187h-.34375c-3.929687 0-7.128906-3.195313-7.128906-7.128907v-11.757812h78.300782v11.757812c0 3.933594-3.199219 7.128907-7.128907 7.128907h-.34375c-12.195312.003906-22.117187 9.921874-22.117187 22.117187zm-48.710938-56.226563v-47.285156h78.300782v47.285156zm229.503906 32.476563c0 9.921875-8.070312 17.992187-17.992187 17.992187h-144.867187c1.175781-.859374 2.617187-1.371093 4.183593-1.371093h.339844c12.195313 0 22.117187-9.921875 22.117187-22.113281v-22.929688h136.21875zm0-43.410156h-136.21875v-81.09375c0-4.136719-3.355468-7.492188-7.492187-7.492188-4.140625 0-7.496094 3.355469-7.496094 7.492188v29.519531h-78.300781v-127.828125c0-13.457031-10.945312-24.40625-24.402344-24.40625-13.457031 0-24.40625 10.949219-24.40625 24.40625v26.460937c0 7.25-5.894531 13.144532-13.140625 13.144532-7.246093 0-13.144531-5.894532-13.144531-13.144532v-97.265624h224.511719v122.09375c0 6.570312-5.347657 11.917968-11.921875 11.917968-6.574219 0-11.921875-5.347656-11.921875-11.917968v-14.121094c0-13.03125-10.601563-23.636719-23.636719-23.636719-13.03125 0-23.636719 10.605469-23.636719 23.636719v15.847656c0 4.140625 3.355469 7.496094 7.492188 7.496094 4.140625 0 7.496093-3.355469 7.496093-7.496094v-15.847656c0-4.769532 3.878907-8.648438 8.648438-8.648438s8.648438 3.878906 8.648438 8.648438v14.121094c0 14.835937 12.074218 26.90625 26.910156 26.90625 14.835937 0 26.90625-12.070313 26.90625-26.90625v-122.09375h65.105468zm0-265.195313h-480.90625v-53.964844c0-9.921874 8.070313-17.992187 17.992188-17.992187h444.921875c9.921875 0 17.992187 8.074219 17.992187 17.996094zm0 0"/></svg>