<svg height="512pt" viewBox="-1 0 512 512" width="512pt" xmlns="http://www.w3.org/2000/svg" fill="#ffffff"><path d="m334.953125 383.164062v-45.648437c0-4.144531-3.355469-7.5-7.5-7.5-4.140625 0-7.5 3.355469-7.5 7.5v45.226563h-15.726563v-220.246094h15.726563v129.011718c0 4.144532 3.359375 7.503907 7.5 7.503907 4.144531 0 7.5-3.359375 7.5-7.503907 0-11.550781 0-23.101562 0-34.652343 0-26.101563 0-52.203125 0-78.304688 0-7.363281.078125-14.730469 0-22.097656-.054687-5.394531-3.566406-8.566406-6.914063-12.847656-8.402343-10.742188-16.691406-21.574219-25.0625-32.34375-12.605468-16.230469-25.214843-32.460938-37.824218-48.6875-2.347656-3.023438-5.886719-4.757813-9.714844-4.757813-3.824219 0-7.367188 1.734375-9.714844 4.757813-8.074218 10.394531-16.148437 20.789062-24.226562 31.179687-9.09375 11.710938-18.191406 23.421875-27.289063 35.128906-3.527343 4.539063-7.050781 9.082032-10.578125 13.621094-2.570312 3.304688-7.707031 8.414063-7.707031 12.492188v43.992187c0 4.144531 3.359375 7.503907 7.5 7.503907 4.144531 0 7.503906-3.359376 7.503906-7.503907v-36.492187h15.722657v220.246094h-15.722657v-137.242188c0-4.144531-3.359375-7.503906-7.503906-7.503906-4.140625 0-7.5 3.359375-7.5 7.503906v137.664062c-7.679687 1.710938-13.441406 8.566407-13.441406 16.753907v35.628906c0 9.472656 7.707031 17.179687 17.179687 17.179687h7.988282v15.015626c0 24.402343 19.855468 44.257812 44.257812 44.257812h47.0625c24.402344 0 44.257812-19.855469 44.257812-44.257812v-15.015626h7.992188c9.472656 0 17.175781-7.707031 17.175781-17.179687v-35.625c.003907-8.191406-5.761719-15.046875-13.441406-16.757813zm-58.835937-282.019531h-41.359376l20.679688-26.621093zm-77.367188 46.347657 24.351562-31.347657h64.671876l24.351562 31.347657zm90.476562 15.003906v220.246094h-11.882812v-220.246094zm-26.886718 0v220.246094h-13.804688v-220.246094zm-28.804688 0v220.246094h-11.882812v-220.246094zm74.6875 305.246094c0 16.132812-13.121094 29.253906-29.253906 29.253906h-47.0625c-16.128906 0-29.253906-13.121094-29.253906-29.253906v-15.015626h105.570312zm25.171875-32.195313c0 1.199219-.976562 2.175781-2.175781 2.175781h-151.558594c-1.203125 0-2.179687-.976562-2.179687-2.175781v-35.625c0-1.203125.976562-2.179687 2.179687-2.179687h151.558594c1.199219 0 2.175781.976562 2.175781 2.179687zm0 0"/><path d="m497.460938 60.003906c7.445312 0 13.5-6.054687 13.5-13.5v-33c0-7.445312-6.054688-13.503906-13.5-13.503906h-33c-7.445313 0-13.503907 6.058594-13.503907 13.503906v9h-166.992187c-17.007813-1.195312-35.261719-1.265625-55.070313-.246094-1.359375.070313-2.722656.152344-4.085937.246094h-164.804688v-9c0-7.445312-6.054687-13.503906-13.5-13.503906h-33c-7.445312 0-13.503906 6.058594-13.503906 13.503906v33c0 7.445313 6.058594 13.5 13.503906 13.5h9v142.460938c-.027344 1.214844-.046875 2.429687-.046875 3.644531 0 .269531.015625.535156.046875.796875v59.140625h-9c-7.445312 0-13.503906 6.058594-13.503906 13.503906v33c0 7.445313 6.058594 13.5 13.503906 13.5h33c7.445313 0 13.5-6.054687 13.5-13.5v-33c0-7.445312-6.054687-13.503906-13.5-13.503906h-9v-62.222656c.449219-30.066407 9.675782-58.558594 26.804688-82.527344 29.398437-41.136719 75.726562-69.503906 130.445312-79.871094 10.042969-1.902343 20.285156-3.21875 30.507813-3.921875h58.179687c28.628906 2.054688 53.417969 7.433594 75.902344 16.34375 35.617188 14.121094 65.78125 37.445313 87.222656 67.449219 17.566406 24.578125 26.847656 53.90625 26.847656 84.816406 0 .269531.015626.53125.042969.792969v59.140625h-9c-7.445312 0-13.5 6.058594-13.5 13.503906v33c0 7.445313 6.054688 13.5 13.5 13.5h33.003907c7.445312 0 13.5-6.054687 13.5-13.5v-33c0-7.445312-6.054688-13.503906-13.5-13.503906h-9v-206.042969zm-452.460938 221.046875v30h-29.996094v-30zm-29.996094-236.046875v-30h30v30zm37.097656 67.570313c-5.65625 7.914062-10.523437 16.269531-14.597656 24.984375v-77.554688h9c7.445313 0 13.5-6.054687 13.5-13.5v-9h92.707032c-41.390626 15.207032-76.308594 41.066406-100.609376 75.070313zm406.671876 0c-23.125-32.359375-55.59375-57.488281-93.902344-72.675781-2.089844-.828126-4.199219-1.621094-6.328125-2.394532h92.414062v9c0 7.445313 6.058594 13.5 13.503907 13.5h8.996093v77.738282c-4.089843-8.78125-8.988281-17.199219-14.683593-25.167969zm37.1875 168.476562v30h-30v-30zm-30-236.046875v-30h30v30zm0 0"/></svg>