<svg height="512pt" viewBox="0 0 512.001 512" width="512pt" xmlns="http://www.w3.org/2000/svg" fill="#ffffff"><path d="m55.261719 28.761719c-12.125 0-21.988281 9.867187-21.988281 21.988281 0 12.125 9.863281 21.992188 21.988281 21.992188s21.992187-9.867188 21.992187-21.992188c0-12.121094-9.867187-21.988281-21.992187-21.988281zm0 28.992187c-3.859375 0-7.003907-3.140625-7.003907-7.003906 0-3.859375 3.144532-7 7.003907-7 3.863281 0 7.003906 3.140625 7.003906 7 0 3.863281-3.140625 7.003906-7.003906 7.003906zm0 0"/><path d="m111.25 28.761719c-12.125 0-21.992188 9.867187-21.992188 21.988281 0 12.125 9.867188 21.992188 21.992188 21.992188s21.988281-9.867188 21.988281-21.992188c0-12.121094-9.863281-21.988281-21.988281-21.988281zm0 28.992187c-3.863281 0-7.003906-3.140625-7.003906-7.003906 0-3.859375 3.140625-7 7.003906-7 3.859375 0 7.003906 3.140625 7.003906 7 0 3.863281-3.144531 7.003906-7.003906 7.003906zm0 0"/><path d="m167.234375 28.761719c-12.125 0-21.988281 9.867187-21.988281 21.988281 0 12.125 9.863281 21.992188 21.988281 21.992188s21.992187-9.867188 21.992187-21.992188c0-12.121094-9.867187-21.988281-21.992187-21.988281zm0 28.992187c-3.859375 0-7.003906-3.140625-7.003906-7.003906 0-3.859375 3.144531-7 7.003906-7 3.863281 0 7.003906 3.140625 7.003906 7 0 3.863281-3.140625 7.003906-7.003906 7.003906zm0 0"/><path d="m503.9375 147.824219c4.140625 0 7.496094-3.355469 7.496094-7.496094l.566406-107.351563c0-18.183593-14.792969-32.976562-32.976562-32.976562h-446.042969c-18.183594 0-32.980469 14.796875-32.980469 32.980469v362.566406c0 16.480469 12.152344 30.175781 27.964844 32.597656 1.636718.253907 3.3125.382813 5.015625.382813h145.804687v26.875h-22.625c-15.089844 0-27.371094 12.277344-27.371094 27.367187v16.191407c0 6.886718 5.601563 12.488281 12.488282 12.488281h35.734375c4.136719 0 7.492187-3.355469 7.492187-7.496094 0-4.136719-3.355468-7.492187-7.492187-7.492187h-33.234375v-13.691407c0-6.828125 5.554687-12.382812 12.382812-12.382812h199.113282c6.828124 0 12.382812 5.554687 12.382812 12.382812v13.691407h-144.125c-4.136719 0-7.492188 3.355468-7.492188 7.492187 0 4.140625 3.355469 7.496094 7.492188 7.496094h146.621094c6.886718 0 12.488281-5.601563 12.488281-12.488281v-16.191407c0-15.089843-12.277344-27.367187-27.371094-27.367187h-22.625v-26.875h145.808594c1.703125 0 3.378906-.128906 5.011719-.382813 15.816406-2.421875 27.964844-16.117187 27.964844-32.597656v-208.757813c0-4.140624-3.351563-7.496093-7.492188-7.496093-4.136719 0-7.492188 3.355469-7.492188 7.496093v165.347657h-234.234374v-250.207031h234.234374v38.398437c0 4.140625 3.355469 7.496094 7.492188 7.496094zm-488.398438-45.894531h231.683594v249.667968h-231.683594zm302.121094 353.472656h-123.886718v-26.875h123.886718zm178.785156-88.277344v28.421875c0 9.300781-7.09375 16.976563-16.15625 17.902344-.605468.058593-1.214843.089843-1.835937.089843h-445.472656c-.621094 0-1.234375-.03125-1.835938-.089843-9.0625-.925781-16.15625-8.601563-16.15625-17.902344v-28.421875zm-241.726562-280.183594h-239.179688v-53.964844c0-9.917968 8.070313-17.988281 17.992188-17.988281h444.921875c9.921875 0 17.992187 8.070313 17.992187 17.992188v53.960937zm0 0"/><path d="m46.90625 131.792969h37.964844c4.136718 0 7.492187-3.351563 7.492187-7.492188 0-4.136719-3.355469-7.492187-7.492187-7.492187h-37.964844c-4.140625 0-7.496094 3.355468-7.496094 7.492187 0 4.140625 3.355469 7.492188 7.496094 7.492188zm0 0"/><path d="m110.847656 131.792969h17.984375c4.136719 0 7.492188-3.351563 7.492188-7.492188 0-4.136719-3.355469-7.492187-7.492188-7.492187h-17.984375c-4.140625 0-7.492187 3.355468-7.492187 7.492187 0 4.140625 3.351562 7.492188 7.492187 7.492188zm0 0"/><path d="m103.851562 143.257812h-24.976562c-4.136719 0-7.492188 3.355469-7.492188 7.496094 0 4.136719 3.355469 7.492188 7.492188 7.492188h24.976562c4.140626 0 7.496094-3.355469 7.496094-7.492188 0-4.140625-3.355468-7.496094-7.496094-7.496094zm0 0"/><path d="m221.746094 170.65625h-24.976563c-4.136719 0-7.492187 3.355469-7.492187 7.492188 0 4.136718 3.355468 7.492187 7.492187 7.492187h24.976563c4.140625 0 7.492187-3.355469 7.492187-7.492187 0-4.136719-3.351562-7.492188-7.492187-7.492188zm0 0"/><path d="m119.339844 150.753906c0 4.136719 3.355468 7.492188 7.492187 7.492188h59.945313c4.140625 0 7.496094-3.355469 7.496094-7.492188 0-4.140625-3.355469-7.496094-7.496094-7.496094h-59.945313c-4.136719 0-7.492187 3.355469-7.492187 7.496094zm0 0"/><path d="m95.359375 178.148438c0 4.136718 3.355469 7.492187 7.496094 7.492187h12.988281c4.136719 0 7.492188-3.355469 7.492188-7.492187 0-4.136719-3.355469-7.492188-7.492188-7.492188h-12.988281c-4.140625 0-7.496094 3.355469-7.496094 7.492188zm0 0"/><path d="m173.789062 185.640625c4.140626 0 7.496094-3.355469 7.496094-7.492187 0-4.136719-3.355468-7.492188-7.496094-7.492188h-35.964843c-4.140625 0-7.496094 3.355469-7.496094 7.492188 0 4.136718 3.355469 7.492187 7.496094 7.492187zm0 0"/><path d="m92.363281 275.269531c0-4.140625-3.355469-7.492187-7.492187-7.492187h-37.964844c-4.140625 0-7.496094 3.351562-7.496094 7.492187 0 4.136719 3.355469 7.492188 7.496094 7.492188h37.964844c4.136718 0 7.492187-3.355469 7.492187-7.492188zm0 0"/><path d="m110.847656 267.777344c-4.140625 0-7.492187 3.351562-7.492187 7.492187 0 4.136719 3.351562 7.492188 7.492187 7.492188h17.984375c4.136719 0 7.492188-3.355469 7.492188-7.492188 0-4.140625-3.355469-7.492187-7.492188-7.492187zm0 0"/><path d="m111.347656 301.71875c0-4.136719-3.355468-7.492188-7.496094-7.492188h-24.976562c-4.136719 0-7.492188 3.355469-7.492188 7.492188 0 4.140625 3.355469 7.496094 7.492188 7.496094h24.976562c4.140626 0 7.496094-3.355469 7.496094-7.496094zm0 0"/><path d="m115.84375 321.625h-12.988281c-4.140625 0-7.496094 3.351562-7.496094 7.492188 0 4.136718 3.355469 7.492187 7.496094 7.492187h12.988281c4.136719 0 7.492188-3.355469 7.492188-7.492187 0-4.140626-3.355469-7.492188-7.492188-7.492188zm0 0"/><path d="m221.746094 321.625h-24.976563c-4.136719 0-7.492187 3.351562-7.492187 7.492188 0 4.136718 3.355468 7.492187 7.492187 7.492187h24.976563c4.140625 0 7.492187-3.355469 7.492187-7.492187 0-4.140626-3.351562-7.492188-7.492187-7.492188zm0 0"/><path d="m194.273438 301.71875c0-4.136719-3.355469-7.492188-7.496094-7.492188h-59.945313c-4.136719 0-7.492187 3.355469-7.492187 7.492188 0 4.140625 3.355468 7.496094 7.492187 7.496094h59.945313c4.140625 0 7.496094-3.355469 7.496094-7.496094zm0 0"/><path d="m173.789062 321.625h-35.964843c-4.140625 0-7.496094 3.351562-7.496094 7.492188 0 4.136718 3.355469 7.492187 7.496094 7.492187h35.964843c4.140626 0 7.496094-3.355469 7.496094-7.492187 0-4.140626-3.355468-7.492188-7.496094-7.492188zm0 0"/><path d="m46.90625 219.976562h20.980469c4.136719 0 7.492187-3.355468 7.492187-7.492187 0-4.140625-3.355468-7.492187-7.492187-7.492187h-20.980469c-4.140625 0-7.496094 3.351562-7.496094 7.492187 0 4.136719 3.355469 7.492187 7.496094 7.492187zm0 0"/><path d="m173.289062 212.484375c0-4.140625-3.351562-7.492187-7.492187-7.492187h-76.929687c-4.136719 0-7.492188 3.351562-7.492188 7.492187 0 4.136719 3.355469 7.492187 7.492188 7.492187h76.929687c4.140625 0 7.492187-3.355468 7.492187-7.492187zm0 0"/><path d="m159.304688 238.933594c0-4.136719-3.355469-7.492188-7.496094-7.492188h-72.933594c-4.136719 0-7.492188 3.355469-7.492188 7.492188 0 4.140625 3.355469 7.496094 7.492188 7.496094h72.933594c4.140625 0 7.496094-3.355469 7.496094-7.496094zm0 0"/><path d="m172.792969 246.429688h13.984375c4.140625 0 7.496094-3.355469 7.496094-7.496094 0-4.136719-3.355469-7.492188-7.496094-7.492188h-13.984375c-4.140625 0-7.496094 3.355469-7.496094 7.492188 0 4.140625 3.355469 7.496094 7.496094 7.496094zm0 0"/><path d="m343.015625 289.652344h-47.953125c-4.140625 0-7.496094 3.355468-7.496094 7.492187 0 4.140625 3.355469 7.492188 7.496094 7.492188h47.953125c4.140625 0 7.496094-3.351563 7.496094-7.492188 0-4.136719-3.355469-7.492187-7.496094-7.492187zm0 0"/><path d="m464.90625 289.652344h-94.914062c-4.136719 0-7.492188 3.355468-7.492188 7.492187 0 4.140625 3.355469 7.492188 7.492188 7.492188h94.914062c4.140625 0 7.496094-3.351563 7.496094-7.492188 0-4.136719-3.355469-7.492187-7.496094-7.492187zm0 0"/><path d="m343.015625 318.625h-47.953125c-4.140625 0-7.496094 3.355469-7.496094 7.496094 0 4.136718 3.355469 7.492187 7.496094 7.492187h47.953125c4.140625 0 7.496094-3.355469 7.496094-7.492187 0-4.140625-3.355469-7.496094-7.496094-7.496094zm0 0"/><path d="m464.90625 318.625h-94.914062c-4.136719 0-7.492188 3.355469-7.492188 7.496094 0 4.136718 3.355469 7.492187 7.492188 7.492187h94.914062c4.140625 0 7.496094-3.355469 7.496094-7.492187 0-4.140625-3.355469-7.496094-7.496094-7.496094zm0 0"/><path d="m472.628906 136.171875c0-10.675781-8.683594-19.363281-19.359375-19.363281h-146.570312c-10.675781 0-19.363281 8.6875-19.363281 19.363281v101.484375.007812 17.75c0 10.675782 8.6875 19.363282 19.363281 19.363282h146.570312c10.675781 0 19.359375-8.6875 19.359375-19.363282zm-14.984375 119.242187c0 2.414063-1.964843 4.375-4.375 4.375h-146.570312c-2.414063 0-4.375-1.960937-4.375-4.375v-14.648437l54.882812-54.855469 37.878907 42.6875c2.746093 3.097656 7.484374 3.378906 10.578124.632813 3.097657-2.746094 3.378907-7.480469.632813-10.578125l-3.4375-3.871094 16.9375-16.929688 37.847656 42.65625zm0-37.488281-28.839843-32.5c-2.160157-2.433593-5.265626-3.886719-8.519532-3.984375-3.269531-.09375-6.441406 1.167969-8.742187 3.46875l-18.648438 18.636719-26.679687-30.0625c-2.160156-2.4375-5.265625-3.890625-8.519532-3.984375-3.25-.089844-6.441406 1.164062-8.742187 3.464844l-46.628906 46.609375v-83.402344c0-2.414063 1.960937-4.378906 4.375-4.378906h146.570312c2.414063 0 4.375 1.964843 4.375 4.378906zm0 0"/></svg>