<svg height="511pt" viewBox="1 -21 511.999 511" width="511pt" xmlns="http://www.w3.org/2000/svg" fill="#ffffff"><path d="m461.878906 173.0625c-.28125-.300781-.582031-.570312-.898437-.816406-3.609375-3.105469-8.289063-4.996094-13.410157-4.996094h-48.589843c-4.164063 0-7.535157 3.371094-7.535157 7.535156 0 4.160156 3.371094 7.53125 7.535157 7.53125h40.335937l-100.085937 80.875-100.089844-80.875h113.628906c4.160157 0 7.535157-3.371094 7.535157-7.53125 0-4.164062-3.375-7.535156-7.535157-7.535156h-121.882812c-5.121094 0-9.796875 1.890625-13.40625 4.992188-.320313.246093-.621094.519531-.90625.824218-3.863281 3.746094-6.28125 8.980469-6.28125 14.777344v141.863281c0 11.355469 9.238281 20.59375 20.59375 20.59375h216.6875c11.355469 0 20.59375-9.238281 20.59375-20.59375v-141.863281c-.003907-5.800781-2.417969-11.035156-6.289063-14.78125zm-8.78125 156.644531c0 .460938-.0625.910157-.171875 1.339844l-72.457031-81.804687 72.628906-58.6875zm-113.867187-50.75c2.800781 0 5.605469-.921875 7.890625-2.769531l21.617187-17.46875 67.769531 76.515625h-194.554687l67.769531-76.515625 21.613282 17.46875c2.289062 1.847656 5.089843 2.769531 7.894531 2.769531zm-113.871094 50.75v-139.152343l72.628906 58.6875-72.457031 81.804687c-.105469-.429687-.171875-.878906-.171875-1.339844zm0 0"/><path d="m100.691406 25.585938c-12.191406 0-22.113281 9.917968-22.113281 22.109374 0 12.191407 9.917969 22.109376 22.113281 22.109376 12.191406 0 22.109375-9.917969 22.109375-22.109376 0-12.191406-9.917969-22.109374-22.109375-22.109374zm0 29.152343c-3.882812 0-7.042968-3.160156-7.042968-7.042969 0-3.882812 3.160156-7.042968 7.042968-7.042968 3.882813 0 7.039063 3.160156 7.039063 7.042968 0 3.882813-3.15625 7.042969-7.039063 7.042969zm0 0"/><path d="m156.980469 25.585938c-12.191407 0-22.109375 9.917968-22.109375 22.109374 0 12.191407 9.917968 22.109376 22.109375 22.109376 12.191406 0 22.109375-9.917969 22.109375-22.109376.003906-12.191406-9.917969-22.109374-22.109375-22.109374zm0 29.152343c-3.882813 0-7.039063-3.160156-7.039063-7.042969 0-3.882812 3.15625-7.042968 7.039063-7.042968 3.882812 0 7.042969 3.160156 7.042969 7.042968 0 3.882813-3.160157 7.042969-7.042969 7.042969zm0 0"/><path d="m213.273438 25.585938c-12.191407 0-22.109376 9.917968-22.109376 22.109374 0 12.191407 9.917969 22.109376 22.109376 22.109376 12.191406 0 22.109374-9.917969 22.109374-22.109376 0-12.191406-9.917968-22.109374-22.109374-22.109374zm0 29.152343c-3.882813 0-7.042969-3.160156-7.042969-7.042969 0-3.882812 3.160156-7.042968 7.042969-7.042968 3.882812 0 7.042968 3.160156 7.042968 7.042968 0 3.882813-3.160156 7.042969-7.042968 7.042969zm0 0"/><path d="m487.410156 1.125c-2-.410156-4.070312-.625-6.195312-.625h-406.441406c-2.121094 0-4.191407.214844-6.195313.625-14.011719 2.875-24.585937 15.304688-24.585937 30.160156v196.804688h-36.449219c-4.160157 0-7.5351565 3.375-7.5351565 7.535156s3.3749995 7.535156 7.5351565 7.535156h36.449219v122.9375c0 4.164063 3.371093 7.535156 7.53125 7.535156 4.164062 0 7.535156-3.371093 7.535156-7.535156v-122.941406h45.507812c4.160156 0 7.535156-3.371094 7.535156-7.53125 0-4.164062-3.375-7.535156-7.535156-7.535156h-45.507812v-133.199219h437.871094v342.832031c0 8.667969-7.046876 15.71875-15.714844 15.71875h-406.441406c-8.664063 0-15.714844-7.050781-15.714844-15.71875v-24.800781c0-4.160156-3.371094-7.535156-7.535156-7.535156-4.160157 0-7.53125 3.375-7.53125 7.535156v24.800781c0 16.976563 13.808593 30.785156 30.78125 30.785156h406.441406c16.972656 0 30.785156-13.808593 30.785156-30.785156v-406.4375c0-14.855468-10.574219-27.285156-24.589844-30.160156zm9.523438 78.695312h-437.875v-48.535156c0-8.125 6.199218-14.828125 14.113281-15.636718.527344-.054688 1.0625-.078126 1.605469-.078126h406.4375c.542968 0 1.078125.027344 1.605468.078126 7.914063.808593 14.113282 7.511718 14.113282 15.636718zm0 0"/><path d="m184.523438 185.890625c0-4.160156-3.371094-7.53125-7.53125-7.53125h-69.164063c-4.160156 0-7.53125 3.371094-7.53125 7.53125 0 4.164063 3.371094 7.535156 7.53125 7.535156h69.164063c4.160156 0 7.53125-3.371093 7.53125-7.535156zm0 0"/><path d="m70.496094 178.359375c-4.160156 0-7.535156 3.371094-7.535156 7.53125 0 4.164063 3.375 7.535156 7.535156 7.535156h14.734375c4.160156 0 7.53125-3.371093 7.53125-7.535156 0-4.160156-3.371094-7.53125-7.53125-7.53125zm0 0"/><path d="m177.320312 324.121094h-23.691406c-4.160156 0-7.53125 3.375-7.53125 7.535156s3.371094 7.535156 7.53125 7.535156h23.691406c4.160157 0 7.535157-3.375 7.535157-7.535156s-3.375-7.535156-7.535157-7.535156zm0 0"/><path d="m35.578125 275.511719h-28.042969c-4.164062 0-7.535156 3.371093-7.535156 7.535156 0 4.160156 3.371094 7.53125 7.535156 7.53125h28.042969c4.160156 0 7.53125-3.371094 7.53125-7.53125 0-4.164063-3.371094-7.535156-7.53125-7.535156zm0 0"/><path d="m27.46875 324.121094h-19.933594c-4.164062 0-7.535156 3.375-7.535156 7.535156s3.371094 7.535156 7.535156 7.535156h19.933594c4.160156 0 7.53125-3.375 7.53125-7.535156s-3.371094-7.535156-7.53125-7.535156zm0 0"/><path d="m72.433594 283.046875c0 4.160156 3.371094 7.53125 7.535156 7.53125h97.023438c4.160156 0 7.53125-3.371094 7.53125-7.53125 0-4.164063-3.371094-7.535156-7.53125-7.535156h-97.023438c-4.164062 0-7.535156 3.371093-7.535156 7.535156zm0 0"/><path d="m62.960938 331.65625c0 4.160156 3.375 7.535156 7.535156 7.535156h54.519531c4.160156 0 7.53125-3.375 7.53125-7.535156s-3.371094-7.535156-7.53125-7.535156h-54.519531c-4.160156 0-7.535156 3.375-7.535156 7.535156zm0 0"/><path d="m7.542969 193.425781h21.804687c4.160156 0 7.535156-3.371093 7.535156-7.535156 0-4.160156-3.375-7.53125-7.535156-7.53125h-21.804687c-4.160157 0-7.5351565 3.371094-7.5351565 7.53125 0 4.164063 3.3749995 7.535156 7.5351565 7.535156zm0 0"/><path d="m130.269531 243.15625h46.722657c4.160156 0 7.53125-3.371094 7.53125-7.53125 0-4.164062-3.371094-7.535156-7.53125-7.535156h-46.722657c-4.164062 0-7.535156 3.371094-7.535156 7.535156 0 4.160156 3.375 7.53125 7.535156 7.53125zm0 0"/></svg>