<svg height="512pt" viewBox="0 0 511 512" width="512pt" xmlns="http://www.w3.org/2000/svg" fill="#ffffff"><path d="m512.394531 167c0-92.085938-74.917969-167-167-167-32.671875 0-63.175781 9.4375-88.949219 25.722656-25.769531-16.285156-56.273437-25.722656-88.945312-25.722656-28.894531 0-57.375 7.5-82.355469 21.6875-3.601562 2.046875-4.863281 6.625-2.820312 10.226562 2.046875 3.601563 6.625 4.863282 10.226562 2.816407 22.730469-12.90625 48.644531-19.730469 74.949219-19.730469 27.476562 0 53.273438 7.328125 75.542969 20.136719-39.3125 30.578125-64.648438 78.316406-64.648438 131.863281 0 9.914062.871094 19.628906 2.539063 29.074219-41.457032 21.105469-72.972656 59.019531-85.535156 104.707031-47.535157-25.722656-79.898438-76.042969-79.898438-133.78125 0-39.277344 14.933594-76.550781 42.046875-104.945312 2.859375-2.996094 2.75-7.746094-.246094-10.605469-2.996093-2.859375-7.746093-2.75-10.605469.246093-29.789062 31.199219-46.195312 72.152344-46.195312 115.304688 0 64.925781 37.242188 121.308594 91.484375 148.925781-1.664063 9.445313-2.539063 19.160157-2.539063 29.074219 0 92.085938 74.917969 167 167 167 33.3125 0 65.480469-9.78125 93.023438-28.285156 3.4375-2.3125 4.351562-6.972656 2.042969-10.410156-2.3125-3.4375-6.972657-4.351563-10.40625-2.042969-25.0625 16.839843-54.335938 25.738281-84.660157 25.738281-83.8125 0-152-68.1875-152-152 0-7.707031.582032-15.277344 1.695313-22.679688 19.003906 7.535157 39.707031 11.679688 61.359375 11.679688 32.671875 0 63.175781-9.4375 88.945312-25.722656 25.773438 16.285156 56.277344 25.722656 88.949219 25.722656 21.652344 0 42.355469-4.144531 61.359375-11.679688 1.113282 7.402344 1.691406 14.972657 1.691406 22.679688 0 35.226562-12.324218 69.5625-34.703124 96.683594-2.636719 3.195312-2.1875 7.921875 1.011718 10.558594 3.191406 2.636718 7.921875 2.183593 10.554688-1.011719 24.59375-29.800781 38.136718-67.527344 38.136718-106.230469 0-9.914062-.871093-19.628906-2.539062-29.074219 54.242188-27.617187 91.488281-84 91.488281-148.925781zm-255.949219-123.179688c38.171876 27.640626 63.054688 72.554688 63.054688 123.179688 0 7.707031-.578125 15.277344-1.691406 22.679688-19.003906-7.535157-39.707032-11.679688-61.363282-11.679688-21.652343 0-42.355468 4.144531-61.359374 11.679688-1.109376-7.402344-1.691407-14.976563-1.691407-22.679688 0-50.625 24.882813-95.539062 63.050781-123.179688zm-88.945312 275.179688c-20.65625 0-40.359375-4.148438-58.332031-11.644531 10.609375-41.492188 38.335937-76.203125 75.179687-96.136719 9.679688 35.210938 30.617188 65.804688 58.695313 87.644531-22.265625 12.808594-48.066407 20.136719-75.542969 20.136719zm30.613281-114.355469c17.972657-7.496093 37.675781-11.644531 58.332031-11.644531 20.660157 0 40.363282 4.148438 58.335938 11.644531-8.925781 34.894531-29.957031 64.988281-58.332031 85.535157-28.378907-20.546876-49.410157-50.640626-58.335938-85.535157zm147.28125 114.355469c-27.476562 0-53.277343-7.328125-75.542969-20.136719 28.078126-21.839843 49.015626-52.433593 58.695313-87.644531 36.84375 19.933594 64.570313 54.644531 75.179687 96.136719-17.972656 7.496093-37.675781 11.644531-58.332031 11.644531zm72.097657-18.21875c-12.554688-45.683594-44.074219-83.601562-85.527344-104.707031 1.664062-9.445313 2.539062-19.160157 2.539062-29.074219 0-53.546875-25.339844-101.28125-64.652344-131.863281 22.265626-12.808594 48.0625-20.136719 75.542969-20.136719 83.8125 0 152 68.1875 152 152 0 57.738281-32.363281 108.058594-79.902343 133.78125zm0 0"/></svg>